# xmcd CD database file
#
# Track frame offsets:
#	150
#	25175
#	47693
#	82589
#	107239
#	127333
#	157750
#	189466
#	220367
#	243506
#
# Disc length: 3448 seconds
#
# Revision: 0
# Processed by: cddbd v1.5.2PL0 Copyright (c) Steve Scherf et al.
# Submitted via: CDex 1.70beta2
#
DISCID=7f0d760a
DTITLE=Gonzalo Rubalcaba - The Blessing
DYEAR=1900
DGENRE=Jazz
TTITLE0=Circuito
TTITLE1=Sandino
TTITLE2=Besame Mucho
TTITLE3=Giant Steps
TTITLE4=Sin Remedio,El Mar.
TTITLE5=Silver Hollow
TTITLE6=The Blessing
TTITLE7=Blue In Green
TTITLE8=Sinpunto Y Contracopa
TTITLE9=Mima
EXTD=
EXTT0=
EXTT1=
EXTT2=
EXTT3=
EXTT4=
EXTT5=
EXTT6=
EXTT7=
EXTT8=
EXTT9=
PLAYORDER=
